{
    "asset" : {
        "generator" : "Khronos glTF Blender I/O v1.8.19",
        "version" : "2.0"
    },
    "scene" : 0,
    "scenes" : [
        {
            "name" : "Scene",
            "nodes" : [
                0
            ]
        }
    ],
    "nodes" : [
        {
            "mesh" : 0,
            "name" : "Cylinder"
        }
    ],
    "meshes" : [
        {
            "name" : "Cylinder.007",
            "primitives" : [
                {
                    "attributes" : {
                        "POSITION" : 0,
                        "NORMAL" : 1,
                        "TEXCOORD_0" : 2
                    },
                    "indices" : 3
                }
            ]
        }
    ],
    "accessors" : [
        {
            "bufferView" : 0,
            "componentType" : 5126,
            "count" : 2770,
            "max" : [
                0.9999999403953552,
                0.9995995759963989,
                0.049709200859069824
            ],
            "min" : [
                -0.9999999403953552,
                -1.0004003047943115,
                -0.05029094219207764
            ],
            "type" : "VEC3"
        },
        {
            "bufferView" : 1,
            "componentType" : 5126,
            "count" : 2770,
            "type" : "VEC3"
        },
        {
            "bufferView" : 2,
            "componentType" : 5126,
            "count" : 2770,
            "type" : "VEC2"
        },
        {
            "bufferView" : 3,
            "componentType" : 5123,
            "count" : 5538,
            "type" : "SCALAR"
        }
    ],
    "bufferViews" : [
        {
            "buffer" : 0,
            "byteLength" : 33240,
            "byteOffset" : 0
        },
        {
            "buffer" : 0,
            "byteLength" : 33240,
            "byteOffset" : 33240
        },
        {
            "buffer" : 0,
            "byteLength" : 22160,
            "byteOffset" : 66480
        },
        {
            "buffer" : 0,
            "byteLength" : 11076,
            "byteOffset" : 88640
        }
    ],
    "buffers" : [
        {
            "byteLength" : 99716,
            "uri" : "data:application/octet-stream;base64,"
        }
    ]
}
