{
    "asset" : {
        "generator" : "Khronos glTF Blender I/O v1.8.19",
        "version" : "2.0"
    },
    "scene" : 0,
    "scenes" : [
        {
            "name" : "Scene",
            "nodes" : [
                0
            ]
        }
    ],
    "nodes" : [
        {
            "mesh" : 0,
            "name" : "15809_Thumbs_Up_v1",
            "rotation" : [
                0.7071065902709961,
                0,
                0,
                -0.7071069478988647
            ],
            "scale" : [
                0.19999998807907104,
                0.19999998807907104,
                0.19999998807907104
            ],
            "translation" : [
                -0.36566880345344543,
                -1.3712579011917114,
                -1.5236198902130127
            ]
        }
    ],
    "materials" : [
        {
            "doubleSided" : true,
            "name" : "Material",
            "pbrMetallicRoughness" : {
                "baseColorFactor" : [
                    0.15219201147556305,
                    0.8000000715255737,
                    0.47818559408187866,
                    1
                ],
                "metallicFactor" : 0,
                "roughnessFactor" : 0.4000000059604645
            }
        }
    ],
    "meshes" : [
        {
            "name" : "15809_Thumbs_Up_v1",
            "primitives" : [
                {
                    "attributes" : {
                        "POSITION" : 0,
                        "NORMAL" : 1,
                        "TEXCOORD_0" : 2
                    },
                    "indices" : 3,
                    "material" : 0
                }
            ]
        }
    ],
    "accessors" : [
        {
            "bufferView" : 0,
            "componentType" : 5126,
            "count" : 2476,
            "max" : [
                17.021099090576172,
                -0.991100013256073,
                18.591957092285156
            ],
            "min" : [
                -8.157299995422363,
                -13.681889533996582,
                -0.9487000107765198
            ],
            "type" : "VEC3"
        },
        {
            "bufferView" : 1,
            "componentType" : 5126,
            "count" : 2476,
            "type" : "VEC3"
        },
        {
            "bufferView" : 2,
            "componentType" : 5126,
            "count" : 2476,
            "type" : "VEC2"
        },
        {
            "bufferView" : 3,
            "componentType" : 5123,
            "count" : 14214,
            "type" : "SCALAR"
        }
    ],
    "bufferViews" : [
        {
            "buffer" : 0,
            "byteLength" : 29712,
            "byteOffset" : 0
        },
        {
            "buffer" : 0,
            "byteLength" : 29712,
            "byteOffset" : 29712
        },
        {
            "buffer" : 0,
            "byteLength" : 19808,
            "byteOffset" : 59424
        },
        {
            "buffer" : 0,
            "byteLength" : 28428,
            "byteOffset" : 79232
        }
    ],
    "buffers" : [
        {
            "byteLength" : 107660,
            "uri" : "data:application/octet-stream;base64,"
        }
    ]
}
